<mxfile host="app.diagrams.net" modified="2023-10-17T21:35:59.005Z" agent="Mozilla/5.0 (Macintosh; Intel Mac OS X 10_15_7) AppleWebKit/605.1.15 (KHTML, like Gecko) Version/17.0 Safari/605.1.15" etag="qLj0gd6DIi7gUMpVm2P4" version="22.0.4" type="github">
  <diagram name="Page-1" id="uiiAts6hdXHy9_PBmHUF">
    <mxGraphModel dx="838" dy="621" grid="1" gridSize="10" guides="1" tooltips="1" connect="1" arrows="1" fold="1" page="1" pageScale="1" pageWidth="850" pageHeight="1100" math="0" shadow="0">
      <root>
        <mxCell id="0" />
        <mxCell id="1" parent="0" />
        <mxCell id="cQlQVKy6QPfl08jgkI4e-1" value="Actor" style="shape=umlActor;verticalLabelPosition=bottom;verticalAlign=top;html=1;outlineConnect=0;" vertex="1" parent="1">
          <mxGeometry x="170" y="250" width="39.5" height="79" as="geometry" />
        </mxCell>
        <mxCell id="cQlQVKy6QPfl08jgkI4e-2" value="" style="sketch=0;html=1;dashed=0;whitespace=wrap;fillColor=#f8cecc;strokeColor=#b85450;points=[[0.005,0.63,0],[0.1,0.2,0],[0.9,0.2,0],[0.5,0,0],[0.995,0.63,0],[0.72,0.99,0],[0.5,1,0],[0.28,0.99,0]];verticalLabelPosition=bottom;align=center;verticalAlign=top;shape=mxgraph.kubernetes.icon;prIcon=api" vertex="1" parent="1">
          <mxGeometry x="350" y="237" width="87.5" height="84" as="geometry" />
        </mxCell>
        <mxCell id="cQlQVKy6QPfl08jgkI4e-3" style="edgeStyle=orthogonalEdgeStyle;rounded=0;orthogonalLoop=1;jettySize=auto;html=1;entryX=0.005;entryY=0.63;entryDx=0;entryDy=0;entryPerimeter=0;" edge="1" parent="1" source="cQlQVKy6QPfl08jgkI4e-14" target="cQlQVKy6QPfl08jgkI4e-2">
          <mxGeometry relative="1" as="geometry" />
        </mxCell>
        <mxCell id="cQlQVKy6QPfl08jgkI4e-4" value="" style="sketch=0;html=1;dashed=0;whitespace=wrap;fillColor=#f8cecc;strokeColor=#b85450;points=[[0.005,0.63,0],[0.1,0.2,0],[0.9,0.2,0],[0.5,0,0],[0.995,0.63,0],[0.72,0.99,0],[0.5,1,0],[0.28,0.99,0]];verticalLabelPosition=bottom;align=center;verticalAlign=top;shape=mxgraph.kubernetes.icon;prIcon=etcd" vertex="1" parent="1">
          <mxGeometry x="470" y="50" width="93.75" height="90" as="geometry" />
        </mxCell>
        <mxCell id="cQlQVKy6QPfl08jgkI4e-8" style="edgeStyle=orthogonalEdgeStyle;rounded=0;orthogonalLoop=1;jettySize=auto;html=1;entryX=0;entryY=0.556;entryDx=0;entryDy=0;entryPerimeter=0;" edge="1" parent="1" source="cQlQVKy6QPfl08jgkI4e-2" target="cQlQVKy6QPfl08jgkI4e-4">
          <mxGeometry relative="1" as="geometry">
            <Array as="points">
              <mxPoint x="394" y="100" />
            </Array>
          </mxGeometry>
        </mxCell>
        <mxCell id="cQlQVKy6QPfl08jgkI4e-9" style="edgeStyle=orthogonalEdgeStyle;rounded=0;orthogonalLoop=1;jettySize=auto;html=1;entryX=0.5;entryY=1;entryDx=0;entryDy=0;entryPerimeter=0;" edge="1" parent="1" source="cQlQVKy6QPfl08jgkI4e-2" target="cQlQVKy6QPfl08jgkI4e-4">
          <mxGeometry relative="1" as="geometry" />
        </mxCell>
        <mxCell id="cQlQVKy6QPfl08jgkI4e-10" value="" style="sketch=0;html=1;dashed=0;whitespace=wrap;fillColor=#f8cecc;strokeColor=#b85450;points=[[0.005,0.63,0],[0.1,0.2,0],[0.9,0.2,0],[0.5,0,0],[0.995,0.63,0],[0.72,0.99,0],[0.5,1,0],[0.28,0.99,0]];verticalLabelPosition=bottom;align=center;verticalAlign=top;shape=mxgraph.kubernetes.icon;prIcon=sched" vertex="1" parent="1">
          <mxGeometry x="640" y="360" width="100" height="96" as="geometry" />
        </mxCell>
        <mxCell id="cQlQVKy6QPfl08jgkI4e-11" style="edgeStyle=orthogonalEdgeStyle;rounded=0;orthogonalLoop=1;jettySize=auto;html=1;entryX=0.005;entryY=0.63;entryDx=0;entryDy=0;entryPerimeter=0;" edge="1" parent="1" source="cQlQVKy6QPfl08jgkI4e-2" target="cQlQVKy6QPfl08jgkI4e-10">
          <mxGeometry relative="1" as="geometry">
            <Array as="points">
              <mxPoint x="410" y="421" />
            </Array>
          </mxGeometry>
        </mxCell>
        <mxCell id="cQlQVKy6QPfl08jgkI4e-12" style="edgeStyle=orthogonalEdgeStyle;rounded=0;orthogonalLoop=1;jettySize=auto;html=1;entryX=0.5;entryY=1;entryDx=0;entryDy=0;entryPerimeter=0;" edge="1" parent="1" source="cQlQVKy6QPfl08jgkI4e-10" target="cQlQVKy6QPfl08jgkI4e-2">
          <mxGeometry relative="1" as="geometry">
            <mxPoint x="394" y="330" as="targetPoint" />
            <Array as="points">
              <mxPoint x="690" y="470" />
              <mxPoint x="394" y="470" />
            </Array>
          </mxGeometry>
        </mxCell>
        <mxCell id="cQlQVKy6QPfl08jgkI4e-13" value="app.yaml&lt;br&gt;(manifest file)" style="shape=document;whiteSpace=wrap;html=1;boundedLbl=1;" vertex="1" parent="1">
          <mxGeometry x="20" y="250" width="120" height="80" as="geometry" />
        </mxCell>
        <mxCell id="cQlQVKy6QPfl08jgkI4e-15" value="" style="edgeStyle=orthogonalEdgeStyle;rounded=0;orthogonalLoop=1;jettySize=auto;html=1;entryX=0.005;entryY=0.63;entryDx=0;entryDy=0;entryPerimeter=0;" edge="1" parent="1" source="cQlQVKy6QPfl08jgkI4e-1" target="cQlQVKy6QPfl08jgkI4e-14">
          <mxGeometry relative="1" as="geometry">
            <mxPoint x="210" y="290" as="sourcePoint" />
            <mxPoint x="350" y="290" as="targetPoint" />
          </mxGeometry>
        </mxCell>
        <mxCell id="cQlQVKy6QPfl08jgkI4e-19" style="edgeStyle=orthogonalEdgeStyle;rounded=0;orthogonalLoop=1;jettySize=auto;html=1;" edge="1" parent="1" source="cQlQVKy6QPfl08jgkI4e-14">
          <mxGeometry relative="1" as="geometry">
            <mxPoint x="240" y="370" as="targetPoint" />
          </mxGeometry>
        </mxCell>
        <mxCell id="cQlQVKy6QPfl08jgkI4e-14" value="1" style="ellipse;whiteSpace=wrap;html=1;aspect=fixed;fillColor=#e1d5e7;strokeColor=#9673a6;" vertex="1" parent="1">
          <mxGeometry x="220" y="269.5" width="40" height="40" as="geometry" />
        </mxCell>
        <mxCell id="cQlQVKy6QPfl08jgkI4e-17" value="Text" style="text;html=1;strokeColor=none;fillColor=none;align=center;verticalAlign=middle;whiteSpace=wrap;rounded=0;" vertex="1" parent="1">
          <mxGeometry x="280" y="290" width="60" height="30" as="geometry" />
        </mxCell>
        <mxCell id="cQlQVKy6QPfl08jgkI4e-18" value="oc apply -f app.yaml&lt;br&gt;kubectl apply -f app.yaml" style="text;html=1;strokeColor=none;fillColor=#e1d5e7;align=center;verticalAlign=middle;whiteSpace=wrap;rounded=0;" vertex="1" parent="1">
          <mxGeometry x="140" y="380" width="190" height="30" as="geometry" />
        </mxCell>
        <mxCell id="cQlQVKy6QPfl08jgkI4e-20" value="2" style="ellipse;whiteSpace=wrap;html=1;aspect=fixed;fillColor=#e1d5e7;strokeColor=#9673a6;" vertex="1" parent="1">
          <mxGeometry x="373.75" y="160" width="40" height="40" as="geometry" />
        </mxCell>
        <mxCell id="cQlQVKy6QPfl08jgkI4e-22" value="&lt;div&gt;writes desired state&lt;/div&gt;&lt;div&gt;of deployment to eted&lt;/div&gt;" style="text;html=1;strokeColor=none;fillColor=#e1d5e7;align=center;verticalAlign=middle;whiteSpace=wrap;rounded=0;" vertex="1" parent="1">
          <mxGeometry x="251" y="160" width="120" height="30" as="geometry" />
        </mxCell>
        <mxCell id="cQlQVKy6QPfl08jgkI4e-23" value="&lt;div&gt;Tells Scheduler to&lt;/div&gt;&lt;div&gt;find a node for the pods&lt;/div&gt;" style="text;html=1;strokeColor=none;fillColor=#e1d5e7;align=center;verticalAlign=middle;whiteSpace=wrap;rounded=0;" vertex="1" parent="1">
          <mxGeometry x="491" y="383" width="130" height="30" as="geometry" />
        </mxCell>
        <mxCell id="cQlQVKy6QPfl08jgkI4e-24" value="3" style="ellipse;whiteSpace=wrap;html=1;aspect=fixed;fillColor=#e1d5e7;strokeColor=#9673a6;" vertex="1" parent="1">
          <mxGeometry x="450" y="400" width="40" height="40" as="geometry" />
        </mxCell>
        <mxCell id="cQlQVKy6QPfl08jgkI4e-25" value="&lt;div&gt;Scheduler reports back to&lt;/div&gt;&lt;div&gt;API Server a node location for the pod&lt;/div&gt;" style="text;html=1;strokeColor=none;fillColor=#e1d5e7;align=center;verticalAlign=middle;whiteSpace=wrap;rounded=0;" vertex="1" parent="1">
          <mxGeometry x="437.5" y="456" width="222.5" height="30" as="geometry" />
        </mxCell>
        <mxCell id="cQlQVKy6QPfl08jgkI4e-27" value="4" style="ellipse;whiteSpace=wrap;html=1;aspect=fixed;fillColor=#e1d5e7;strokeColor=#9673a6;" vertex="1" parent="1">
          <mxGeometry x="500" y="210" width="40" height="40" as="geometry" />
        </mxCell>
        <mxCell id="cQlQVKy6QPfl08jgkI4e-32" value="&lt;div&gt;API Server writes to eted the location of the pod as&lt;/div&gt;&lt;div&gt;determined by scheduler&lt;/div&gt;" style="text;html=1;strokeColor=none;fillColor=#e1d5e7;align=center;verticalAlign=middle;whiteSpace=wrap;rounded=0;" vertex="1" parent="1">
          <mxGeometry x="543" y="215" width="287" height="30" as="geometry" />
        </mxCell>
        <mxCell id="cQlQVKy6QPfl08jgkI4e-34" value="" style="sketch=0;html=1;dashed=0;whitespace=wrap;fillColor=#f8cecc;strokeColor=#b85450;points=[[0.005,0.63,0],[0.1,0.2,0],[0.9,0.2,0],[0.5,0,0],[0.995,0.63,0],[0.72,0.99,0],[0.5,1,0],[0.28,0.99,0]];verticalLabelPosition=bottom;align=center;verticalAlign=top;shape=mxgraph.kubernetes.icon;prIcon=kubelet" vertex="1" parent="1">
          <mxGeometry x="320" y="580" width="93.75" height="90" as="geometry" />
        </mxCell>
        <mxCell id="cQlQVKy6QPfl08jgkI4e-35" style="edgeStyle=orthogonalEdgeStyle;rounded=0;orthogonalLoop=1;jettySize=auto;html=1;entryX=0.183;entryY=0.94;entryDx=0;entryDy=0;entryPerimeter=0;" edge="1" parent="1" source="cQlQVKy6QPfl08jgkI4e-34" target="cQlQVKy6QPfl08jgkI4e-2">
          <mxGeometry relative="1" as="geometry" />
        </mxCell>
        <mxCell id="cQlQVKy6QPfl08jgkI4e-36" value="5" style="ellipse;whiteSpace=wrap;html=1;aspect=fixed;fillColor=#e1d5e7;strokeColor=#9673a6;" vertex="1" parent="1">
          <mxGeometry x="346.88" y="500" width="40" height="40" as="geometry" />
        </mxCell>
        <mxCell id="cQlQVKy6QPfl08jgkI4e-41" value="&lt;div&gt;kubelet watches the API Server to see&lt;/div&gt;&lt;div&gt;if there are pods it needs to create&lt;/div&gt;" style="text;html=1;strokeColor=none;fillColor=#e1d5e7;align=center;verticalAlign=middle;whiteSpace=wrap;rounded=0;" vertex="1" parent="1">
          <mxGeometry x="125" y="505" width="220" height="30" as="geometry" />
        </mxCell>
        <mxCell id="cQlQVKy6QPfl08jgkI4e-42" value="Runs on all nodes" style="text;html=1;strokeColor=none;fillColor=#f8cecc;align=center;verticalAlign=middle;whiteSpace=wrap;rounded=0;" vertex="1" parent="1">
          <mxGeometry x="416.75" y="620" width="84.25" height="30" as="geometry" />
        </mxCell>
      </root>
    </mxGraphModel>
  </diagram>
</mxfile>
